<?xml version="1.0" standalone="no"?>
<!DOCTYPE svg PUBLIC "-//W3C//DTD SVG 20010904//EN"
 "http://www.w3.org/TR/2001/REC-SVG-20010904/DTD/svg10.dtd">
<svg version="1.0" xmlns="http://www.w3.org/2000/svg"
 width="400.000000pt" height="400.000000pt" viewBox="0 0 400.000000 400.000000"
 preserveAspectRatio="xMidYMid meet">
<metadata>
Created by potrace 1.11, written by Peter Selinger 2001-2013
</metadata>
<g transform="translate(0.000000,400.000000) scale(0.100000,-0.100000)"
fill="#000000" stroke="none">
<path d="M1660 3874 c-47 -7 -98 -15 -115 -18 -16 -3 -43 -8 -60 -11 -16 -3
-61 -15 -100 -26 -248 -72 -474 -189 -669 -345 -251 -203 -449 -464 -573 -759
-32 -78 -90 -271 -107 -360 -56 -286 -40 -636 41 -895 15 -47 27 -87 28 -90 6
-27 36 -102 75 -185 232 -497 667 -867 1205 -1023 39 -12 84 -23 100 -27 17
-3 41 -8 55 -10 128 -27 244 -34 495 -31 149 2 281 6 295 9 24 5 125 20 125
18 0 -5 251 67 315 91 166 62 370 178 520 297 58 45 234 221 287 286 75 92
171 244 227 358 56 113 139 346 150 422 4 22 8 47 11 55 5 20 14 79 25 165 12
100 4 395 -14 495 -28 150 -34 176 -75 300 -199 604 -702 1076 -1316 1236
-103 26 -126 31 -250 49 -116 16 -560 16 -675 -1z"/>
</g>
</svg>
